<svg id="svg" version="1.1" xmlns="http://www.w3.org/2000/svg" style="display: block;" viewBox="0 0 604 276"><path d="M0 0 C199.32 0 398.64 0 604 0 C604 90.42 604 180.84 604 274 C600.52913604 272.26456802 599.47731027 271.62676282 597.125 268.9375 C581.91203053 253.46885037 558.23783161 245.383948 538 239 C536.66606201 238.57340088 536.66606201 238.57340088 535.30517578 238.13818359 C468.96654506 217.14790647 398.07568977 212.65071713 329 210 C329.28895142 208.95138794 329.28895142 208.95138794 329.58374023 207.8815918 C340.62276576 167.64477163 341.70008236 128.32158993 323 90 C322.69191406 89.36465332 322.38382812 88.72930664 322.06640625 88.07470703 C304.57965289 52.51165728 273.36650779 26.1337909 235.99755859 13.31298828 C197.09049061 0.31923328 155.54720231 4.05001279 118.73828125 21.55078125 C104.18452613 29.05142503 91.65918755 38.5885289 80 50 C79.33742188 50.61230469 78.67484375 51.22460938 77.9921875 51.85546875 C53.03067587 75.36572971 38.45894958 112.77325817 36.87719727 146.62841797 C35.99394184 177.38933183 41.37462999 213.12203628 60.76953125 238.296875 C62 240 62 240 62 243 C60.82566406 243.47308594 59.65132812 243.94617188 58.44140625 244.43359375 C33.42090664 254.43738101 33.42090664 254.43738101 13 271.5 C10 274 10 274 0 274 C0 183.58 0 93.16 0 0 Z " transform="translate(0,0)" style="fill: #000000;"/><path d="M0 0 C30.41395428 26.95415289 49.01173765 63.73117158 51.96875 104.40625 C53.01238025 123.82640109 52.44066493 149.14614957 42.75291443 166.59628296 C40.96875 168.40625 40.96875 168.40625 38.34461975 168.91177368 C37.28738205 168.91462372 36.23014435 168.91747375 35.14086914 168.92041016 C33.93459869 168.93376907 32.72832825 168.94712799 31.48550415 168.96089172 C29.51461319 168.95318001 29.51461319 168.95318001 27.50390625 168.9453125 C26.12672548 168.95443926 24.74955641 168.96551886 23.37240601 168.97843933 C20.4462047 169.00283063 17.52026287 169.01594784 14.59396362 169.02017212 C7.74444524 169.03185392 0.89554354 169.11003634 -5.95354271 169.18329048 C-8.20716074 169.20699153 -10.46079214 169.22869059 -12.71443176 169.25022888 C-28.86324784 169.41232377 -44.93657679 170.07699236 -61.03125 171.40625 C-62.20294739 171.50292969 -62.20294739 171.50292969 -63.39831543 171.6015625 C-97.49507193 174.45290607 -131.53390962 178.31214285 -165.03125 185.40625 C-166.1361377 185.63425293 -167.24102539 185.86225586 -168.37939453 186.09716797 C-182.51734247 189.02357657 -196.3198913 192.48345506 -210.0703125 196.890625 C-214.67911571 198.35059004 -219.29797719 199.42695218 -224.03125 200.40625 C-237.71646468 183.64186201 -245.02646628 162.44311261 -249.03125 141.40625 C-249.36962891 139.64861328 -249.36962891 139.64861328 -249.71484375 137.85546875 C-256.16420636 97.86942058 -245.37255847 57.50638716 -222.15625 24.76171875 C-217.80432537 19.00952208 -212.95005853 13.675211 -208.03125 8.40625 C-207.33257812 7.6534375 -206.63390625 6.900625 -205.9140625 6.125 C-151.59546364 -50.38226035 -58.06856109 -49.68753166 0 0 Z " transform="translate(287.03125,41.59375)" style="fill: #FEAA01;"/><path d="M0 0 C19.80840008 4.5276343 42.06015453 14.0072613 57 28 C57.74378906 28.67289062 58.48757813 29.34578125 59.25390625 30.0390625 C61 32 61 32 61 35 C-133.37 35 -327.74 35 -528 35 C-522.48309097 23.96618193 -510.49380352 18.46016822 -500 13 C-498.95070313 12.44699219 -497.90140625 11.89398438 -496.8203125 11.32421875 C-490.35915493 8 -490.35915493 8 -488 8 C-488 8.66 -488 9.32 -488 10 C-471.91097034 10.06362094 -455.83588805 9.86765906 -439.75 9.5625 C-437.21346443 9.51596809 -434.67692459 9.46966864 -432.14038086 9.42358398 C-426.92218702 9.32868096 -421.70400887 9.23297594 -416.48583984 9.13671875 C-406.60906417 8.95535774 -396.73208084 8.78670896 -386.85507202 8.61862183 C-341.68878275 7.8487633 -296.52305835 7.04555991 -251.35717773 6.25219727 C-250.18947342 6.23168619 -249.0217691 6.21117512 -247.81867981 6.1900425 C-241.66900612 6.08202009 -235.51933263 5.97398608 -229.36965942 5.86593628 C-222.98235715 5.75371547 -216.595054 5.64154472 -210.20775032 5.52940369 C-207.81157464 5.48732646 -205.41539924 5.44523333 -203.01922417 5.40312195 C-186.86704472 5.11926629 -170.71480309 4.83922995 -154.5625 4.5625 C-135.42364109 4.23455817 -116.28491551 3.89959426 -97.14624596 3.56078529 C-89.33717641 3.42260516 -81.52810063 3.28477719 -73.71902561 3.14690685 C-65.85531639 3.00801356 -57.99161887 2.86847751 -50.12792873 2.728508 C-45.15986518 2.64022627 -40.19179139 2.55253139 -35.22371483 2.46498489 C-32.8799311 2.42355821 -30.53615176 2.38188294 -28.19237709 2.33994675 C-24.94580809 2.28188887 -21.69922477 2.22470547 -18.45263672 2.16772461 C-17.50640725 2.15059197 -16.56017778 2.13345934 -15.5852747 2.11580753 C-10.38919144 2.02563044 -5.19687047 1.98372202 0 2 C0 1.34 0 0.68 0 0 Z " transform="translate(539,239)" style="fill: #C1D0E2;"/><path d="M0 0 C1.4667215 0.0998822 1.4667215 0.0998822 2.96307373 0.20178223 C47.70971084 3.28292501 92.10893185 8.55864693 135.75 19.125 C136.42865112 19.28908356 137.10730225 19.45316711 137.80651855 19.6222229 C144.70298856 21.30187016 151.56717177 23.09902712 158.390625 25.0546875 C159.44797852 25.35616699 160.50533203 25.65764648 161.59472656 25.96826172 C162.3884668 26.30873535 163.18220703 26.64920898 164 27 C164.33 27.99 164.66 28.98 165 30 C151.80830024 31.09839188 138.62100466 31.29241398 125.390625 31.5 C122.97832669 31.54067143 120.5660343 31.58169491 118.15374756 31.62304688 C111.80144221 31.73109581 105.44907405 31.83483504 99.09667969 31.9375 C89.09981159 32.0999269 79.10306039 32.26951765 69.106287 32.4376545 C65.38801774 32.50004375 61.66974015 32.56191912 57.95146179 32.62376404 C38.25609476 32.95299591 18.56192424 33.33253144 -1.13225842 33.72551441 C-2.62454196 33.75527882 -2.62454196 33.75527882 -4.14697266 33.78564453 C-5.11295285 33.80491595 -6.07893305 33.82418737 -7.07418537 33.84404278 C-17.29692629 34.0471112 -27.5199811 34.22532549 -37.74343872 34.38842773 C-43.0729767 34.47364353 -48.40246555 34.56185969 -53.7319622 34.64961624 C-55.83050816 34.68414717 -57.92905556 34.71858984 -60.02760315 34.75302124 C-80.94251316 35.0964961 -101.8572833 35.44840763 -122.77203655 35.80128002 C-129.23031134 35.91023328 -135.68859006 36.01893694 -142.1468811 36.12692261 C-169.17412351 36.5789532 -196.20063121 37.05210778 -223.22628403 37.5914135 C-240.25445692 37.93106708 -257.28270301 38.24102375 -274.31225586 38.50268555 C-276.95843126 38.54352931 -279.60458654 38.58502998 -282.25073242 38.62768555 C-310.57442563 39.08421898 -310.57442563 39.08421898 -324 39 C-322.56094026 35.53480142 -322.13616521 35.06932047 -318.5625 33.25 C-315 32 -315 32 -312 32 C-311.67 31.34 -311.34 30.68 -311 30 C-308.89292622 29.50409274 -306.78271931 29.01895368 -304.66113281 28.58935547 C-299.97720615 27.55201611 -295.44490514 26.0112238 -290.875 24.5625 C-283.16902631 22.16456675 -275.60362841 20.07707519 -267.64453125 18.703125 C-264.48348671 18.09327718 -261.40726289 17.36416454 -258.2890625 16.5703125 C-222.37683177 7.47480828 -184.83956748 4.03972503 -148 1 C-147.28203247 0.94070312 -146.56406494 0.88140625 -145.82434082 0.8203125 C-97.58086784 -3.08801949 -48.26708779 -3.32170045 0 0 Z " transform="translate(374,211)" style="fill: #BACBDE;"/><path d="M0 0 C1.32 0.66 2.64 1.32 4 2 C4 2.66 4 3.32 4 4 C-195.32 4 -394.64 4 -600 4 C-600 3.34 -600 2.68 -600 2 C-592.79264892 1.23873363 -585.69314476 0.85910296 -578.4478426 0.89256954 C-577.44069821 0.89310407 -576.43355382 0.8936386 -575.39588991 0.89418933 C-572.03606168 0.89720684 -568.67629592 0.90746379 -565.31648254 0.91770935 C-562.87748214 0.92140583 -560.43848102 0.92465442 -557.99947947 0.92749459 C-552.70451612 0.93468363 -547.409573 0.94502365 -542.11462212 0.95816994 C-534.24130115 0.97770057 -526.36797755 0.99135716 -518.49464263 1.00383171 C-505.24860957 1.02498411 -492.00258973 1.05086821 -478.75657082 1.07946587 C-465.64476703 1.10775824 -452.53296182 1.13393721 -439.4211483 1.15730476 C-438.19744512 1.15948739 -438.19744512 1.15948739 -436.94902067 1.16171412 C-432.80583282 1.16909305 -428.66264489 1.17643434 -424.51945695 1.18376113 C-395.18703517 1.23570012 -365.85462424 1.29236079 -336.5222168 1.35180664 C-308.02938247 1.40954016 -279.53654528 1.46512971 -251.04370117 1.51782227 C-250.16514903 1.51944785 -249.28659688 1.52107343 -248.38142195 1.52274827 C-239.55849528 1.53907094 -230.73556854 1.55535008 -221.91264173 1.57159733 C-203.93994489 1.6046947 -185.96724859 1.63808256 -167.99455261 1.67164612 C-167.16822983 1.6731889 -166.34190704 1.67473168 -165.49054417 1.67632121 C-110.32702 1.77934708 -55.16350896 1.8891653 0 2 C0 1.34 0 0.68 0 0 Z " transform="translate(600,272)" style="fill: #F4F7FA;"/></svg>